<?xml version="1.0"?>
<svg xmlns="http://www.w3.org/2000/svg" xmlns:xlink="http://www.w3.org/1999/xlink" xmlns:svgjs="http://svgjs.com/svgjs" version="1.1" width="512" height="512" x="0" y="0" viewBox="0 0 95.312 95.312" style="enable-background:new 0 0 512 512" xml:space="preserve" class=""><g>
<g xmlns="http://www.w3.org/2000/svg">
	<path d="M31.904,89.924V77.131c0-1.021,0.829-1.849,1.849-1.849h28.423v0.006h1.333c8.453,0,15.33-6.875,15.33-15.33   c0-8.451-6.877-15.329-15.33-15.329l-34.397-0.025l13.302,13.25c0.687,0.688,0.687,1.902,0,2.588l-8.267,8.268   c-0.343,0.343-0.81,0.535-1.294,0.535c-0.485,0-0.951-0.192-1.294-0.535L0.538,37.686c-0.717-0.715-0.717-1.873,0-2.589   l31.02-31.021c0.715-0.714,1.873-0.714,2.588,0l8.267,8.265c0.343,0.343,0.536,0.809,0.536,1.294s-0.193,0.951-0.536,1.295   L29.111,28.132l34.397,0.023c17.537,0,31.805,14.267,31.805,31.803c0,17.537-14.267,31.805-31.804,31.805l-29.756,0.01   C32.733,91.772,31.904,90.944,31.904,89.924z" fill="#373539" data-original="#000000" style="" class=""/>
</g>
<g xmlns="http://www.w3.org/2000/svg">
</g>
<g xmlns="http://www.w3.org/2000/svg">
</g>
<g xmlns="http://www.w3.org/2000/svg">
</g>
<g xmlns="http://www.w3.org/2000/svg">
</g>
<g xmlns="http://www.w3.org/2000/svg">
</g>
<g xmlns="http://www.w3.org/2000/svg">
</g>
<g xmlns="http://www.w3.org/2000/svg">
</g>
<g xmlns="http://www.w3.org/2000/svg">
</g>
<g xmlns="http://www.w3.org/2000/svg">
</g>
<g xmlns="http://www.w3.org/2000/svg">
</g>
<g xmlns="http://www.w3.org/2000/svg">
</g>
<g xmlns="http://www.w3.org/2000/svg">
</g>
<g xmlns="http://www.w3.org/2000/svg">
</g>
<g xmlns="http://www.w3.org/2000/svg">
</g>
<g xmlns="http://www.w3.org/2000/svg">
</g>
</g></svg>
