<svg id="Layer_1" data-name="Layer 1" xmlns="http://www.w3.org/2000/svg" viewBox="0 0 1125.99 466.79">
  <defs>
    <style>
      .cls-1 {
        fill: #e6e8e6;
      }

      .cls-2 {
        fill: #2fa4d9;
      }
    </style>
  </defs>
  <title>Header</title>
  <path class="cls-1" d="M3.25,55l1121.51,3a1.23,1.23,0,0,1,1.23,1.24l-3,407a1.69,1.69,0,0,0,.46,1c2.13,3-238.09-3.92-368.47-65.21C477.05,271.35,457.79,194,352,200,246.89,206,29.77,366.46,7,383.53a1.23,1.23,0,0,1-2-1L2,56.25A1.24,1.24,0,0,1,3.25,55Z" transform="translate(0 -1)"/>
  <path class="cls-2" d="M0,1,1124,4l-3,409c12.88,3.51-234.84-2.41-368-65C475.05,217.35,455.79,140,350,146,239,152.28,3,331,3,331Z" transform="translate(0 -1)"/>
</svg>
