<svg id="Layer_1" data-name="Layer 1" xmlns="http://www.w3.org/2000/svg" viewBox="0 0 1130.89 796.48">
  <defs>
    <style>
      .cls-1 {
        fill: #e6e8e6;
      }

      .cls-2 {
        fill: #2fa4d9;
      }
    </style>
  </defs>
  <title>SignInFooter</title>
  <path class="cls-1" d="M10.14,2433.64,12,2431c0-1-.81-77.06-1-78-2.62-12.89,274-294.69,416-245,303,106,452.56,31.05,541.45-60.19,81.91-84.07,129.85-150.07,161.55-208.81,2.08-3.86,1-199.58,1-194.5l3.15,790.5" transform="translate(-3.26 -1644.41)"/>
  <path class="cls-2" d="M3.26,2440.89,16,2419c0-.62-1.81-5.41-2-6-2.61-8.11,285.18-262.72,425-228,298,74,434,69.52,523,12,82-53,129.15-180.84,160.91-217.85,2.09-2.42,2.1-39.35,2.09-36.15l2.26,497.49" transform="translate(-3.26 -1644.41)"/>
</svg>
